<?xml version="1.0" standalone="no"?>
<!DOCTYPE svg PUBLIC "-//W3C//DTD SVG 20010904//EN"
 "http://www.w3.org/TR/2001/REC-SVG-20010904/DTD/svg10.dtd">
<svg version="1.0" xmlns="http://www.w3.org/2000/svg"
 width="756.000000pt" height="756.000000pt" viewBox="0 0 756.000000 756.000000"
 preserveAspectRatio="xMidYMid meet">
<metadata>
Created by potrace 1.14, written by Peter Selinger 2001-2017
</metadata>
<g transform="translate(0.000000,756.000000) scale(0.100000,-0.100000)"
fill="#000000" stroke="none">
<path d="M3580 7183 c-1540 -91 -2833 -1212 -3139 -2721 -49 -242 -65 -407
-65 -687 0 -278 14 -427 65 -677 203 -1005 858 -1871 1770 -2342 371 -191 720
-301 1135 -357 214 -29 611 -32 824 -6 415 51 765 156 1140 343 659 330 1186
858 1518 1521 478 954 480 2086 5 3038 -613 1227 -1891 1968 -3253 1888z m495
-114 c944 -82 1813 -576 2378 -1351 343 -471 549 -1011 612 -1603 17 -164 19
-471 4 -635 -86 -932 -558 -1775 -1315 -2347 -715 -541 -1662 -764 -2564 -603
-736 132 -1416 522 -1915 1100 -446 516 -721 1165 -784 1850 -15 163 -13 471
4 633 63 593 269 1135 611 1604 113 154 173 225 311 366 548 560 1239 896
2018 982 149 16 480 18 640 4z"/>
<path d="M3424 6758 c-34 -30 -36 -35 -31 -77 2 -26 8 -53 11 -62 6 -13 -10
-18 -96 -32 -57 -10 -149 -28 -203 -42 -92 -22 -101 -23 -112 -8 -7 9 -13 31
-13 48 0 92 108 113 191 38 43 -39 50 -36 19 7 -49 68 -181 93 -238 45 -48
-40 -49 -85 -5 -166 2 -4 -5 -9 -17 -12 -29 -8 -12 -52 21 -52 21 0 27 -12 64
-132 33 -105 47 -136 68 -154 16 -12 30 -19 32 -17 2 2 -15 76 -40 163 -24 88
-43 161 -42 162 6 5 238 55 242 52 2 -2 6 -21 10 -43 7 -36 7 -38 -13 -27 -35
19 -78 13 -111 -15 -60 -50 -29 -147 55 -174 30 -10 39 -9 69 9 24 14 35 16
35 8 0 -7 16 -28 35 -47 19 -19 35 -28 35 -21 0 7 -11 80 -25 163 -14 82 -23
153 -20 159 4 5 23 9 44 9 l38 0 18 -139 c17 -135 19 -140 48 -162 l30 -22 -6
39 c-3 21 -11 94 -18 162 -14 140 -14 142 58 142 l42 0 -6 -34 c-4 -28 -1 -39
20 -60 15 -14 35 -26 47 -26 23 0 25 -9 7 -34 -11 -16 -17 -16 -34 -6 -29 19
-53 6 -53 -28 0 -35 16 -52 52 -52 22 0 32 -9 54 -45 25 -44 44 -58 44 -32 0
6 -11 30 -24 52 l-24 39 23 28 c13 16 27 48 30 73 7 40 3 61 -20 118 -6 15 -1
17 39 17 l46 0 0 -143 0 -143 30 -29 30 -28 2 169 3 169 45 0 45 0 -4 -141
c-3 -121 -1 -145 14 -168 9 -14 21 -24 25 -21 4 2 10 55 14 117 4 62 9 135 13
162 l6 48 35 -5 c19 -4 36 -8 38 -9 1 -2 -2 -37 -7 -78 -11 -92 0 -134 45
-161 17 -10 39 -19 48 -19 10 0 19 -11 23 -30 3 -16 23 -43 42 -61 34 -30 40
-31 96 -26 32 3 60 7 62 9 3 2 1 17 -4 34 -8 29 -8 29 -70 25 -69 -3 -101 14
-101 55 0 33 47 67 82 60 96 -20 84 -27 103 58 19 83 25 88 91 67 16 -6 62
-20 103 -31 l73 -22 -6 -31 c-9 -42 -11 -43 -47 -13 -62 52 -133 -8 -109 -92
15 -56 25 -66 64 -66 20 0 36 -1 36 -2 0 -2 -5 -15 -10 -29 -11 -28 5 -105 21
-105 4 0 19 36 34 80 27 82 43 100 88 100 47 0 44 -42 -6 -88 -22 -21 -24 -28
-15 -53 13 -38 22 -37 48 7 48 76 45 169 -6 192 -14 7 -30 9 -36 6 -12 -8 -2
45 11 59 13 13 321 -114 321 -133 0 -3 -6 -15 -14 -26 -14 -19 -15 -18 -60 4
-75 36 -117 26 -142 -34 -15 -36 -21 -147 -9 -184 12 -39 23 -10 22 60 -1 71
17 110 50 110 16 0 93 -38 93 -45 0 -3 -13 -32 -30 -65 -30 -59 -35 -89 -22
-122 5 -13 29 23 86 132 l79 149 29 -15 c27 -14 29 -13 40 11 6 14 9 27 7 29
-13 13 -268 134 -344 164 -219 85 -505 156 -737 183 -92 11 -107 15 -112 32
-8 30 20 86 48 96 57 22 145 -33 165 -103 l9 -31 1 30 c3 94 -143 185 -227
141 -42 -22 -56 -50 -49 -105 l5 -46 -109 3 c-59 2 -170 -1 -246 -7 -151 -12
-153 -11 -153 45 0 52 30 79 85 78 52 -1 87 -22 123 -74 23 -34 30 -25 11 13
-23 44 -64 78 -113 92 -71 21 -91 19 -132 -17z m264 -200 c16 -16 15 -60 -1
-82 -13 -17 -14 -17 -30 -1 -19 19 -22 47 -7 76 12 22 21 24 38 7z m613 -34
c64 -8 72 -15 64 -56 l-7 -35 -60 1 -59 2 -30 47 c-16 26 -29 50 -29 53 0 3
17 3 38 0 20 -3 58 -8 83 -12z m-95 -107 c17 -31 7 -59 -27 -77 -15 -9 -24 -8
-36 1 -12 11 -14 26 -8 79 4 36 9 69 12 73 5 9 32 -25 59 -76z m-909 -24 c4
-11 -7 -28 -36 -55 -47 -44 -74 -46 -79 -7 -6 51 98 107 115 62z m1327 -59
c28 -11 17 -33 -21 -43 -29 -8 -41 -8 -51 3 -27 27 28 57 72 40z"/>
<path d="M2621 6380 c-145 -63 -273 -134 -429 -237 l-124 -81 -45 15 c-52 18
-108 13 -148 -13 l-27 -18 37 -13 c31 -11 40 -10 58 2 22 15 97 21 97 8 -1 -5
-30 -30 -66 -58 -35 -27 -79 -64 -96 -82 l-31 -32 28 -7 c19 -5 37 -1 58 11
l30 18 39 -44 38 -44 -32 -27 -31 -27 -33 28 c-56 50 -131 62 -171 29 -19 -16
-16 -55 7 -78 25 -25 101 -28 120 -5 10 12 16 13 27 4 11 -10 10 -15 -7 -34
-11 -12 -20 -26 -20 -32 0 -12 111 -53 142 -53 17 0 17 2 -3 41 l-21 42 31 31
32 31 32 -38 c21 -24 44 -39 66 -44 42 -8 45 -12 -76 136 -51 62 -93 117 -93
122 0 12 68 61 77 56 4 -3 42 -51 83 -106 63 -84 82 -102 118 -115 50 -18 55
-28 -60 130 -48 67 -88 127 -88 133 0 10 122 94 231 159 l37 22 16 -25 c9 -14
15 -29 12 -33 -3 -5 -42 -31 -88 -59 -46 -28 -92 -59 -103 -67 -20 -16 -20
-16 4 -36 14 -12 31 -18 41 -15 12 4 25 -4 39 -24 22 -31 84 -65 140 -76 46
-10 37 13 -13 30 -62 21 -104 73 -90 110 5 12 95 75 108 75 2 0 20 -29 40 -64
27 -48 44 -67 68 -75 17 -6 33 -9 35 -7 3 2 -14 38 -36 78 -47 85 -49 100 -20
129 20 20 22 20 40 3 12 -11 19 -30 19 -53 0 -42 7 -54 37 -70 30 -15 33 -14
33 13 0 57 -57 144 -109 166 -25 10 -35 9 -61 -3 -28 -15 -31 -14 -41 5 -9 18
-8 24 7 36 20 14 161 82 173 82 4 0 30 -55 59 -123 42 -98 60 -127 83 -141 17
-10 32 -16 35 -14 2 3 -20 63 -50 135 -74 179 -72 171 -42 183 23 8 25 12 14
35 -6 14 -14 25 -17 25 -3 0 -57 -23 -120 -50z m-736 -596 c12 -12 13 -19 4
-30 -26 -32 -85 -4 -72 34 7 17 49 15 68 -4z"/>
<path d="M5351 6138 c-12 -20 -11 -24 20 -49 32 -26 33 -27 16 -53 -20 -30
-25 -31 -51 -11 -28 21 -34 19 -56 -17 -17 -28 -20 -51 -20 -146 0 -87 3 -113
13 -110 8 3 13 31 15 82 3 73 4 77 29 87 23 8 30 6 47 -15 12 -14 31 -29 44
-34 23 -8 23 -8 -18 -60 -36 -44 -41 -57 -38 -93 l3 -41 105 131 c57 72 107
131 110 131 11 0 150 -121 150 -129 0 -5 -7 -14 -15 -21 -12 -10 -22 -6 -55
20 -56 44 -86 37 -102 -25 -8 -31 -17 -45 -29 -45 -9 0 -31 -13 -48 -29 -27
-26 -31 -35 -31 -84 0 -63 37 -194 51 -180 5 5 1 36 -11 78 -27 95 -26 119 7
145 44 34 123 14 123 -31 0 -21 -28 -39 -59 -39 -16 0 -21 -6 -21 -25 0 -23 2
-24 27 -14 38 14 54 29 69 65 17 42 5 84 -30 104 -16 8 -28 19 -27 23 0 4 1
12 1 17 0 20 23 9 68 -30 l46 -41 38 38 38 37 77 -76 76 -76 -29 -25 -28 -25
-13 36 c-13 39 -28 52 -61 52 -36 0 -62 -19 -78 -55 -22 -53 -18 -82 14 -102
15 -9 29 -18 31 -20 3 -2 -7 -16 -21 -31 -14 -15 -29 -45 -33 -66 -8 -46 -13
-48 87 37 51 43 61 48 85 40 61 -21 52 -64 -17 -83 -31 -8 -40 -16 -45 -41 -4
-17 -5 -32 -3 -34 2 -3 23 5 47 17 51 25 90 74 98 121 4 30 1 40 -20 60 l-26
24 28 21 29 21 61 -77 c33 -42 61 -81 61 -87 0 -5 -47 -44 -105 -85 -91 -65
-106 -80 -119 -117 l-15 -44 97 68 c53 37 115 80 136 95 21 15 42 28 46 28 13
0 109 -160 104 -174 -7 -18 -66 -43 -71 -30 -33 95 -91 78 -134 -39 -12 -34
-33 -90 -45 -124 -22 -61 -22 -63 -4 -63 15 0 24 16 43 76 l24 75 60 4 c61 3
109 21 132 49 8 9 17 16 22 16 7 0 52 -77 77 -132 2 -4 -55 -36 -126 -72 -79
-40 -131 -72 -135 -83 -2 -10 -8 -26 -12 -35 -5 -13 39 4 148 56 l155 74 11
-24 c11 -25 27 -30 50 -15 11 7 11 15 1 45 -10 32 -9 39 13 68 63 85 73 143
31 185 -22 22 -32 25 -67 20 -29 -4 -48 -14 -63 -33 l-22 -27 -14 24 c-235
381 -485 655 -822 898 -54 39 -101 71 -105 71 -3 0 -12 -10 -20 -22z m148
-138 l25 -21 -37 -36 c-33 -33 -38 -36 -62 -25 -37 17 -40 35 -10 81 29 44 34
44 84 1z m301 -420 c27 -27 25 -40 -8 -40 -40 0 -77 28 -61 46 16 20 46 17 69
-6z m617 -408 c6 -4 17 -20 22 -35 12 -31 -3 -82 -31 -105 -14 -11 -20 -5 -47
43 -37 65 -37 69 -9 89 24 17 46 20 65 8z"/>
<path d="M4654 6022 c-17 -11 -34 -48 -34 -75 0 -29 27 -56 60 -59 39 -5 37
26 -2 37 -18 6 -34 18 -36 27 -4 23 32 42 57 28 16 -8 21 -6 26 11 10 32 -38
53 -71 31z"/>
<path d="M1635 5663 c-83 -94 -219 -272 -277 -364 l-36 -56 26 -16 26 -15 63
94 c61 91 73 101 107 88 35 -14 39 -43 11 -89 -25 -43 -25 -44 -6 -55 32 -17
51 -12 69 20 20 35 35 37 62 10 26 -26 25 -52 -1 -76 -17 -15 -38 -19 -102
-20 -100 -2 -114 -20 -22 -29 146 -16 209 8 209 81 0 46 -48 94 -93 94 -22 0
-31 6 -36 23 -9 27 -54 77 -71 77 -25 0 -25 21 1 55 l27 35 42 -34 c82 -67
121 -73 168 -26 16 17 33 30 37 30 4 0 18 -11 31 -25 18 -19 33 -25 64 -25
l41 1 -35 31 c-19 17 -75 69 -124 115 -86 82 -88 84 -70 104 14 15 16 24 8 37
-21 33 -41 22 -119 -65z m145 -153 c0 -64 -20 -59 -129 28 l-25 20 28 36 27
36 50 -41 c43 -37 49 -47 49 -79z"/>
<path d="M2626 5588 c-8 -13 -17 -38 -21 -55 -4 -18 -11 -35 -15 -38 -21 -13
-50 -100 -50 -150 0 -46 4 -57 31 -83 31 -31 32 -32 26 -109 -3 -43 -8 -88
-12 -99 -5 -17 -2 -23 18 -27 23 -6 23 -9 16 -59 -10 -71 -43 -162 -71 -198
-16 -20 -32 -29 -54 -29 -40 -1 -157 -88 -172 -128 -10 -29 -81 -109 -118
-134 -33 -22 -92 -139 -100 -196 -4 -31 -2 -65 6 -87 9 -30 9 -39 -4 -58 -44
-62 10 -132 75 -97 26 14 109 -18 109 -42 0 -9 11 -21 25 -27 34 -16 32 -41
-5 -48 -20 -5 -30 -12 -30 -25 0 -10 -9 -33 -20 -52 l-21 -35 35 -6 c27 -5 33
-10 29 -26 -3 -11 4 -35 15 -54 14 -24 18 -43 13 -66 -5 -28 -11 -33 -38 -35
-38 -3 -64 -22 -133 -98 -47 -51 -51 -59 -44 -92 7 -39 17 -42 79 -20 41 15
120 11 131 -6 10 -17 30 -9 47 21 10 17 25 30 33 30 24 0 80 -34 132 -81 l50
-45 -30 -37 -30 -37 46 0 c34 0 44 -3 40 -13 -7 -20 44 -115 72 -133 18 -12
37 -15 70 -10 26 3 54 1 65 -5 15 -7 28 -6 50 5 22 11 37 13 49 6 25 -13 63
-13 95 2 20 9 31 8 50 -2 30 -16 70 -2 109 39 34 35 70 31 92 -10 8 -16 22
-29 31 -29 13 0 12 -5 -7 -25 -23 -24 -28 -48 -29 -138 -1 -21 -10 -33 -37
-49 -20 -11 -39 -30 -44 -42 -9 -25 7 -76 23 -76 48 0 134 23 152 40 12 11 24
20 28 20 3 0 8 -21 12 -47 12 -98 22 -118 80 -162 54 -41 56 -41 124 -38 64 3
70 2 73 -17 3 -20 23 -33 88 -56 91 -32 118 -22 129 48 5 30 12 38 36 45 17 5
45 16 64 24 44 18 90 4 152 -49 45 -38 100 -51 114 -28 3 6 22 10 41 10 19 0
34 5 34 12 0 6 7 20 16 29 16 18 18 18 46 -6 16 -14 34 -23 38 -20 5 3 11 1
15 -5 12 -19 24 -10 51 39 27 47 29 48 57 38 24 -8 37 -6 63 8 33 18 54 14 54
-10 0 -16 69 -75 87 -75 6 0 15 -9 18 -20 4 -11 17 -28 31 -36 20 -14 29 -14
54 -4 17 7 30 17 30 23 0 6 25 35 56 64 l57 52 3 98 c3 83 8 107 31 153 15 30
36 63 45 72 10 10 20 28 22 40 3 13 7 34 10 48 2 14 11 53 20 87 14 55 14 70
1 145 -8 45 -15 95 -15 109 0 15 -9 38 -20 52 -11 14 -20 36 -20 49 0 12 -7
32 -15 43 -10 12 -13 30 -9 51 4 23 1 35 -11 45 -19 16 -55 52 -79 80 -9 11
-27 19 -40 19 -24 0 -36 16 -36 50 0 10 -8 28 -19 41 -16 20 -16 26 -5 48 8
14 14 49 14 78 0 29 4 62 9 75 4 13 17 50 27 83 10 33 22 66 27 73 13 17 11
72 -2 85 -20 20 -12 55 18 79 l30 23 -29 56 c-18 37 -25 61 -19 70 5 8 9 26 9
41 0 15 4 29 9 33 5 3 12 18 16 34 3 16 12 32 20 35 21 8 95 163 95 200 0 20
8 40 20 51 11 10 20 28 20 41 0 13 5 26 10 29 6 4 10 25 9 48 -1 23 3 51 11
63 11 17 10 25 -3 45 -21 31 -121 82 -145 74 -11 -3 -24 1 -32 10 -7 8 -21 15
-31 15 -10 0 -30 5 -44 12 -18 8 -35 8 -60 1 -29 -9 -41 -8 -72 8 -25 13 -54
19 -82 17 -37 -2 -45 1 -52 19 -19 51 -88 54 -113 5 -8 -15 -26 -38 -40 -51
-14 -13 -31 -40 -37 -60 -12 -38 -55 -91 -73 -91 -6 0 -17 9 -24 20 -14 23
-80 28 -100 8 -8 -8 -14 -5 -21 15 -17 44 -85 64 -111 32 -7 -8 -22 -15 -35
-15 -12 0 -36 -5 -54 -11 -28 -10 -33 -8 -49 11 -15 19 -25 22 -53 16 -19 -3
-53 -15 -74 -26 -38 -19 -41 -19 -75 -3 -46 22 -96 20 -131 -6 -34 -25 -54
-26 -103 -6 -23 10 -36 22 -36 34 0 10 -9 26 -20 36 -11 10 -20 25 -20 33 0
19 -67 81 -107 98 -18 8 -50 14 -72 14 -27 0 -44 6 -53 19 -7 10 -27 25 -45
35 -18 9 -37 25 -43 35 -14 27 -76 47 -95 31 -18 -15 -64 -5 -71 14 -3 7 9 35
25 62 17 26 29 49 27 51 -2 2 -20 -4 -40 -14 -27 -12 -39 -14 -44 -6 -28 45
-172 40 -187 -7 -5 -15 -10 -13 -39 16 -40 40 -79 45 -100 12z m266 -110 c-3
-33 1 -39 44 -72 43 -33 73 -42 134 -38 8 0 26 -8 41 -19 15 -10 31 -19 35
-19 4 0 22 -16 40 -35 29 -32 36 -35 89 -35 52 0 60 -3 89 -34 36 -38 76 -102
76 -120 0 -20 26 -38 83 -58 73 -26 129 -24 164 6 l29 25 30 -20 c32 -21 140
-27 146 -9 2 7 21 4 51 -7 47 -17 49 -17 80 1 18 11 54 22 82 26 46 7 52 5 77
-23 24 -25 33 -28 63 -23 22 4 35 3 35 -4 0 -15 147 -13 160 3 6 6 24 28 40
46 17 19 35 51 40 71 14 51 45 78 70 62 11 -7 45 -12 76 -12 45 0 62 -5 86
-25 34 -29 48 -31 88 -10 34 18 75 7 98 -27 11 -15 22 -19 46 -15 29 5 33 1
59 -44 29 -53 29 -59 -18 -139 -8 -14 -15 -39 -15 -56 0 -34 -48 -135 -80
-169 -11 -11 -34 -65 -52 -119 l-32 -98 20 -37 c20 -36 20 -37 2 -66 -14 -23
-18 -42 -14 -80 3 -27 6 -57 7 -65 1 -8 -11 -55 -26 -105 -16 -49 -30 -117
-33 -150 -2 -33 -10 -68 -18 -79 -20 -29 -18 -82 4 -98 10 -7 23 -32 30 -55
13 -44 52 -83 83 -83 10 0 21 -9 24 -20 3 -11 15 -25 26 -30 11 -6 19 -21 19
-36 0 -14 7 -38 15 -53 8 -16 12 -31 8 -34 -9 -9 17 -65 33 -71 8 -3 14 -18
14 -34 0 -16 7 -61 16 -99 14 -64 14 -75 -1 -129 -9 -32 -19 -72 -22 -89 -3
-16 -16 -43 -28 -60 -55 -76 -76 -134 -77 -214 -1 -100 -2 -105 -48 -141 l-39
-31 -45 22 c-36 16 -46 27 -46 45 0 13 -9 28 -21 34 -11 7 -29 20 -40 31 -24
24 -50 24 -82 -1 -34 -27 -51 -25 -65 5 -6 14 -17 25 -23 25 -17 0 -68 -59
-75 -86 -7 -29 -6 -29 -46 -4 -46 28 -62 25 -102 -15 -46 -46 -80 -54 -114
-26 -62 50 -169 84 -196 62 -18 -15 -116 -44 -143 -43 -19 2 -23 -3 -23 -27 0
-51 -8 -61 -41 -49 -16 5 -29 15 -29 22 0 7 -11 23 -25 36 -22 21 -31 22 -99
18 -71 -5 -77 -3 -108 22 -27 23 -34 38 -44 96 -7 38 -13 85 -13 104 -1 56
-26 83 -72 78 -33 -3 -39 0 -44 20 -4 18 0 28 15 39 40 28 20 153 -25 153 -7
0 -15 6 -18 14 -7 18 -109 86 -128 86 -23 -1 -46 -24 -62 -63 -15 -35 -18 -36
-41 -26 -20 10 -34 8 -72 -6 -43 -16 -47 -16 -78 0 -30 16 -35 16 -63 2 -22
-12 -33 -13 -41 -5 -8 8 -22 8 -50 0 -22 -7 -44 -12 -50 -12 -14 0 -32 54 -25
79 3 12 -2 32 -11 46 -9 13 -16 35 -16 47 0 34 -26 65 -60 73 -17 4 -38 18
-47 31 -22 35 -105 75 -167 81 -43 4 -54 2 -70 -16 -19 -21 -60 -28 -70 -12
-9 15 25 36 53 33 40 -4 70 26 86 88 19 71 19 90 -1 119 -23 32 -21 96 5 154
12 27 21 57 21 68 0 18 -32 59 -47 59 -5 0 -15 13 -24 29 -11 19 -28 31 -50
36 -57 13 -99 37 -99 57 0 11 -7 33 -16 50 -34 65 4 156 112 263 38 39 75 84
82 100 17 40 87 90 137 98 59 9 107 69 145 182 31 92 41 207 20 220 -5 3 -10
48 -10 98 0 74 -4 98 -20 125 -11 17 -24 32 -30 32 -13 0 -13 56 1 83 6 12 23
34 37 49 20 22 28 25 45 17 29 -16 84 -2 104 26 13 19 26 24 48 23 28 -3 30
-5 27 -40z"/>
<path d="M3563 4900 c-18 -10 -39 -33 -48 -49 -28 -56 -14 -144 29 -180 13
-11 8 -19 -39 -63 -106 -96 -166 -247 -195 -488 -18 -154 -16 -157 43 -45 29
55 70 126 90 156 103 156 241 279 313 279 45 0 120 -29 178 -70 47 -31 48 -32
41 -9 -30 108 -116 215 -191 239 -35 12 -35 12 -19 37 9 14 17 44 17 67 2 85
-58 146 -142 146 -27 0 -58 -8 -77 -20z"/>
<path d="M3710 4377 c3 -3 46 -27 95 -53 129 -67 229 -138 317 -225 155 -151
170 -278 46 -370 l-43 -31 35 7 c98 21 207 110 237 195 16 45 18 47 44 40 67
-20 150 30 170 102 35 130 -113 229 -226 152 l-38 -25 -26 25 c-72 69 -218
131 -376 160 -90 16 -243 31 -235 23z"/>
<path d="M3185 4264 c-71 -25 -137 -84 -173 -154 l-33 -63 -52 -1 c-95 -2
-151 -61 -144 -154 4 -57 27 -91 81 -119 40 -21 107 -12 150 20 l33 26 26 -27
c92 -96 356 -182 557 -182 l55 0 -101 54 c-140 73 -239 144 -321 229 -103 106
-139 192 -114 269 11 34 57 85 96 106 l20 11 -20 0 c-11 0 -38 -7 -60 -15z"/>
<path d="M4056 3923 c-65 -125 -154 -253 -230 -329 -78 -78 -137 -114 -188
-114 -33 0 -124 40 -185 80 l-32 21 20 -58 c27 -81 82 -150 151 -187 54 -31
56 -32 42 -56 -7 -14 -13 -45 -14 -70 0 -79 59 -140 138 -140 132 0 196 138
110 235 -16 19 -25 35 -20 35 6 0 34 23 62 51 56 56 107 148 138 251 25 80 55
271 50 322 -3 36 -3 36 -42 -41z"/>
<path d="M1196 5013 c-39 -79 -104 -231 -136 -319 -19 -55 -26 -63 -58 -73
-59 -17 -97 -46 -116 -86 -10 -20 -16 -39 -13 -41 10 -10 77 26 77 41 0 18 47
65 65 65 9 0 7 -21 -10 -77 -40 -140 -40 -135 -8 -121 16 6 33 18 40 26 18 22
91 6 121 -27 30 -32 44 -68 37 -92 -9 -28 -31 -23 -45 11 -16 40 -46 60 -88
60 -47 0 -87 -24 -102 -61 -12 -28 -12 -33 5 -45 32 -23 105 -11 105 17 0 6
-4 7 -10 4 -14 -9 -50 13 -50 30 0 24 53 18 78 -8 12 -13 25 -37 28 -55 7 -35
17 -36 74 -7 47 24 63 51 57 95 l-5 41 41 -6 c27 -4 54 -1 77 8 l34 15 -69 20
c-39 12 -114 33 -168 48 -79 23 -96 31 -91 43 4 9 9 26 11 39 3 12 12 22 19
22 8 0 65 -16 126 -36 108 -35 166 -40 189 -17 5 5 -57 31 -137 58 -80 28
-150 53 -156 56 -9 6 44 172 61 191 3 4 21 0 40 -8 l34 -14 -26 -20 c-35 -28
-41 -53 -22 -89 17 -35 49 -46 101 -38 49 8 64 23 64 63 l0 34 35 -14 c29 -12
42 -13 77 -2 l43 12 -90 44 c-78 39 -90 49 -93 73 -2 16 2 35 8 42 10 12 16
12 41 0 15 -9 33 -24 39 -35 11 -20 35 -25 64 -14 26 10 19 23 -31 54 -79 50
-183 37 -183 -23 0 -20 -29 -22 -54 -4 -17 13 -16 17 19 87 35 70 36 74 19 87
-10 7 -21 13 -26 13 -4 0 -23 -30 -42 -67z m108 -239 c11 -29 7 -84 -7 -84
-33 0 -47 43 -27 81 13 23 26 24 34 3z"/>
<path d="M6468 4733 c-15 -4 -15 -8 -3 -42 16 -45 6 -61 -37 -61 -21 0 -28 5
-28 20 0 46 -69 32 -119 -25 -31 -36 -101 -138 -101 -149 0 -3 6 -6 14 -6 8 0
35 26 60 59 38 50 49 58 71 54 21 -5 25 -11 25 -43 0 -21 7 -43 15 -50 21 -18
13 -25 -48 -40 -41 -9 -61 -21 -81 -46 -16 -21 -22 -34 -14 -34 7 0 80 18 162
40 83 22 152 38 154 35 2 -2 7 -20 12 -39 8 -35 7 -36 -20 -36 -29 0 -60 -22
-60 -43 0 -8 -18 -12 -51 -12 -45 0 -54 -4 -80 -33 -35 -39 -36 -64 -4 -119
18 -33 20 -43 10 -43 -8 0 -29 -13 -47 -30 l-33 -29 25 -1 c25 0 236 25 293
35 24 4 27 2 27 -25 0 -27 3 -30 31 -30 l32 0 -7 63 c-22 197 -135 630 -166
633 -8 1 -23 0 -32 -3z m41 -174 c14 -48 10 -55 -40 -64 -30 -6 -40 -3 -58 16
-24 26 -27 44 -8 56 10 7 71 29 88 32 3 1 11 -18 18 -40z m57 -261 c5 -7 13
-41 20 -75 l11 -62 -26 -5 c-102 -20 -121 -19 -161 9 -47 32 -66 77 -44 100 9
8 20 15 25 15 13 0 64 -50 72 -70 8 -22 48 29 41 53 -11 35 43 65 62 35z"/>
<path d="M6651 4502 c-7 -13 -6 -23 1 -30 18 -18 36 -14 48 8 8 15 6 21 -9 30
-26 13 -29 13 -40 -8z"/>
<path d="M943 4000 c-24 -10 -36 -40 -35 -84 2 -75 105 -105 163 -47 17 17 29
40 29 55 0 13 3 27 8 29 4 2 45 0 92 -4 56 -6 94 -5 113 3 37 14 35 36 -3 30
-26 -4 -140 5 -305 23 -22 3 -50 0 -62 -5z m111 -60 c12 -12 16 -25 11 -39
-14 -44 -115 -14 -115 34 0 36 67 40 104 5z"/>
<path d="M6628 3838 c-3 -22 -7 -23 -139 -26 -135 -3 -136 -3 -170 -33 l-34
-30 174 6 174 6 -6 -152 c-3 -83 -8 -153 -11 -156 -2 -3 -18 -2 -35 2 -22 5
-31 12 -31 26 0 11 -5 29 -10 39 -7 13 -7 21 1 26 6 3 17 22 25 40 13 30 12
38 0 63 -17 32 -34 41 -75 41 -38 0 -165 -92 -149 -108 8 -8 24 -1 56 24 25
19 54 34 64 34 34 0 58 -19 58 -47 0 -21 -4 -24 -22 -20 -13 4 -30 -1 -44 -12
l-23 -18 20 -19 c12 -10 25 -27 31 -38 10 -18 7 -19 -63 -13 -63 4 -79 2 -108
-15 -41 -26 -31 -33 59 -42 36 -4 105 -12 153 -18 l88 -11 -6 -41 c-4 -23 -8
-42 -10 -44 -1 -1 -64 7 -139 19 l-137 21 -31 -20 -32 -21 24 -5 c14 -3 87
-16 163 -30 76 -13 140 -25 142 -27 3 -4 -12 -100 -18 -105 -1 -1 -27 3 -57
10 -47 11 -55 16 -53 35 2 12 -3 24 -10 27 -17 6 -149 -54 -143 -65 3 -5 20
-11 37 -15 22 -4 29 -10 26 -20 -3 -8 -9 -31 -13 -51 -4 -24 -11 -35 -20 -31
-39 15 -83 16 -115 3 -40 -17 -49 -13 136 -68 77 -22 143 -44 147 -48 6 -5
-44 -177 -56 -188 -2 -2 -21 3 -41 11 -29 12 -36 20 -30 33 21 54 18 82 -12
112 -34 34 -101 55 -144 46 -64 -14 -109 -79 -109 -157 0 -26 3 -28 40 -28
l40 0 0 60 c0 47 4 64 20 80 31 31 62 24 86 -22 14 -27 13 -34 -5 -83 l-20
-54 70 -27 c38 -15 72 -31 75 -36 7 -12 -127 -288 -140 -288 -7 0 -21 7 -33
15 l-22 15 32 61 31 61 -23 19 c-16 13 -39 19 -76 19 -56 0 -85 -16 -85 -49 0
-20 -19 -41 -37 -41 -22 0 -45 45 -37 75 9 35 39 53 112 68 46 10 59 16 53 26
-7 10 -22 11 -81 2 -112 -18 -139 -37 -155 -108 -15 -74 109 -128 162 -70 11
12 26 32 32 45 12 23 35 29 46 12 3 -5 -8 -36 -25 -69 -16 -33 -30 -62 -30
-65 0 -2 25 -19 55 -36 30 -17 55 -34 55 -36 0 -3 -7 -15 -16 -29 -14 -22 -14
-24 6 -35 12 -6 28 -9 35 -6 7 2 54 87 105 188 l91 183 56 17 c61 18 97 47
111 88 l10 27 -37 -9 c-26 -7 -40 -18 -49 -38 -10 -22 -70 -66 -79 -57 -1 1
12 41 29 87 49 137 77 237 108 374 16 71 33 133 39 139 16 16 71 -5 94 -34 38
-51 -1 -125 -87 -166 l-51 -24 40 6 c62 10 113 49 141 108 28 62 29 66 8 111
-21 44 -51 59 -103 54 l-42 -4 5 36 c10 61 26 290 26 365 0 57 3 74 16 79 32
12 66 5 91 -20 22 -22 25 -32 20 -70 -5 -51 -32 -85 -87 -115 -23 -12 -29 -18
-17 -19 69 -1 147 97 147 185 0 81 -66 125 -144 95 -23 -8 -26 -7 -26 10 0 31
-57 28 -62 -2z m-122 -749 c48 -12 51 -19 32 -80 -8 -28 -16 -38 -27 -35 -9 3
-35 10 -58 16 l-41 10 9 38 c19 72 14 69 85 51z"/>
<path d="M1251 3576 c-18 -21 11 -41 39 -26 17 9 19 14 9 26 -15 18 -33 18
-48 0z"/>
<path d="M915 3418 c7 -69 33 -229 37 -234 2 -1 16 0 31 3 20 4 26 10 23 22
-3 9 -10 47 -16 85 -12 75 -7 86 37 86 22 0 24 -5 38 -97 8 -52 25 -67 65 -58
32 7 100 59 100 77 0 5 -21 8 -47 6 l-48 -3 -5 42 c-6 39 -5 42 23 47 16 3 43
6 58 6 20 0 42 12 67 35 44 41 49 40 -133 20 -171 -19 -175 -19 -175 5 0 16
-7 20 -31 20 l-31 0 7 -62z"/>
<path d="M811 3418 c-10 -17 -10 -22 6 -33 15 -11 21 -11 35 2 19 17 16 28
-11 42 -13 7 -20 5 -30 -11z"/>
<path d="M1225 3004 c-82 -24 -153 -43 -157 -44 -3 0 -9 13 -13 29 -5 23 -10
27 -31 23 -13 -2 -26 -8 -29 -12 -7 -11 77 -270 119 -368 l32 -77 -28 -54
c-15 -29 -28 -66 -28 -81 0 -34 16 -80 28 -80 18 0 31 50 25 98 -3 27 -1 58 5
68 8 15 16 5 51 -65 48 -94 167 -297 179 -305 13 -8 52 23 47 37 -3 7 18 25
46 42 71 42 97 102 68 156 -9 17 -7 19 13 15 74 -15 121 -17 129 -4 15 23 10
28 -28 29 -58 2 -100 13 -85 22 11 8 45 77 40 82 -2 2 -68 -34 -147 -78 -165
-92 -145 -95 -209 30 -36 72 -37 74 -18 89 31 22 42 17 61 -27 31 -67 82 -78
138 -29 42 37 61 79 54 122 -3 22 2 43 14 64 16 27 17 33 5 43 -11 9 -18 6
-35 -17 -16 -23 -26 -28 -48 -25 -20 3 -34 -2 -47 -16 -26 -29 -8 -69 33 -77
38 -8 47 -32 23 -57 -30 -29 -59 -14 -89 48 l-26 53 -59 -25 c-32 -14 -60 -24
-61 -22 -6 7 -47 107 -47 113 0 3 13 6 28 6 38 0 66 32 66 76 0 31 3 35 25 32
21 -3 25 -8 26 -38 0 -30 4 -35 27 -38 35 -4 63 34 49 69 -7 20 -3 30 26 62
47 52 31 70 -19 20 l-39 -40 -43 14 c-53 18 -110 5 -155 -33 l-31 -26 -9 24
c-25 68 -29 63 66 92 49 15 111 35 140 43 48 15 54 21 81 76 5 10 4 10 -163
-39z m-8 -200 c8 -22 -22 -44 -58 -44 -38 0 -47 19 -19 42 28 22 69 23 77 2z
m301 -471 c3 -18 -9 -31 -59 -63 -34 -22 -65 -40 -68 -40 -8 0 -41 55 -41 68
0 5 19 22 43 36 55 34 120 33 125 -1z"/>
<path d="M2920 2075 c0 -9 9 -15 25 -15 31 0 35 -35 5 -43 -37 -10 -19 -77 34
-126 31 -29 35 -17 6 14 -23 25 -18 55 10 55 28 0 50 11 50 25 0 8 -8 11 -21
8 -25 -7 -38 10 -31 43 3 17 11 24 28 24 15 0 24 6 24 15 0 12 -14 15 -65 15
-51 0 -65 -3 -65 -15z"/>
<path d="M3075 2080 c-8 -12 3 -50 15 -50 4 0 7 7 6 16 0 9 5 19 12 21 25 9
13 -45 -15 -65 -27 -20 -27 -21 -9 -41 25 -27 51 -35 76 -21 18 9 20 8 20 -13
0 -14 7 -30 15 -37 13 -11 15 -1 15 79 l0 91 30 0 30 0 0 -79 c0 -58 4 -82 15
-91 13 -11 15 -1 15 79 0 90 0 91 25 91 23 0 25 -4 25 -43 0 -50 26 -83 60
-74 16 4 20 0 20 -18 0 -12 7 -28 15 -35 13 -11 15 -1 15 79 l0 91 75 0 c68 0
75 -2 75 -19 0 -17 -8 -20 -47 -23 -43 -3 -48 -6 -51 -29 -2 -15 5 -32 18 -44
20 -18 20 -18 20 13 0 29 3 32 30 32 28 0 30 -3 30 -36 0 -38 15 -74 30 -74 6
0 10 39 10 90 0 89 0 90 25 90 25 0 25 -1 25 -79 0 -58 4 -82 15 -91 13 -11
15 -1 15 79 0 74 3 91 15 91 8 0 15 7 15 15 0 13 -41 15 -312 15 -308 -1 -313
-1 -290 -19 27 -24 29 -64 2 -91 -19 -19 -50 -27 -50 -13 0 4 9 17 21 29 25
27 17 67 -17 83 -30 13 -31 13 -39 1z m355 -58 c0 -39 -14 -62 -37 -62 -9 0
-13 16 -13 50 0 47 2 50 25 50 22 0 25 -4 25 -38z"/>
<path d="M4123 2083 c-21 -15 1 -32 47 -35 40 -3 45 -6 48 -29 2 -15 -5 -32
-17 -43 -20 -18 -21 -18 -40 5 -18 22 -20 22 -26 6 -8 -19 10 -47 30 -47 7 0
24 -18 39 -40 14 -22 29 -40 31 -40 3 0 -6 18 -21 39 l-26 39 21 21 c25 25 29
92 7 110 -18 16 -78 24 -93 14z"/>
<path d="M4432 2070 c0 -14 2 -19 5 -12 2 6 2 18 0 25 -3 6 -5 1 -5 -13z"/>
<path d="M4518 2059 c-10 -5 -18 -18 -18 -28 0 -22 36 -61 56 -61 27 0 11 -35
-17 -38 -34 -4 -66 24 -85 73 -13 36 -14 37 -10 8 15 -91 60 -138 111 -115 49
22 57 110 14 153 -22 22 -27 22 -51 8z m52 -33 c0 -19 -17 -29 -37 -22 -12 5
-13 9 -3 21 16 19 40 19 40 1z"/>
<path d="M4626 2025 c-4 -10 1 -15 14 -15 18 0 18 -1 3 -29 -16 -27 -16 -30 1
-56 14 -21 23 -26 42 -21 13 3 35 9 48 12 20 5 25 2 28 -17 4 -22 5 -22 13 -5
12 26 -7 52 -36 48 -65 -8 -74 -7 -77 11 -6 32 27 57 73 57 29 0 45 5 49 15 4
13 -7 15 -73 15 -61 0 -80 -3 -85 -15z"/>
<path d="M3911 2016 c-9 -10 -9 -16 -1 -21 17 -10 37 12 24 25 -8 8 -15 6 -23
-4z"/>
<path d="M4305 2005 c-33 -32 -34 -87 -3 -109 32 -22 55 -20 83 9 31 30 33 77
5 105 -27 27 -56 25 -85 -5z m59 -24 c24 -26 17 -65 -11 -69 -14 -2 -27 5 -38
22 -33 50 10 90 49 47z"/>
<path d="M3906 1921 c-3 -5 1 -14 8 -20 16 -13 32 2 21 19 -8 12 -22 13 -29 1z"/>
<path d="M1700 1895 c-49 -59 88 -287 294 -490 347 -342 727 -471 1216 -410
166 21 240 16 383 -21 55 -15 102 -22 107 -18 11 12 -13 119 -43 193 -98 243
-267 379 -565 453 -76 20 -119 23 -337 25 -137 1 -272 4 -300 5 -48 3 -50 2
-53 -25 -5 -39 36 -89 94 -116 31 -15 90 -28 173 -38 276 -33 306 -92 41 -80
-247 11 -388 87 -665 357 -171 167 -212 195 -245 165 -17 -16 -21 -16 -42 -1
-28 20 -42 20 -58 1z"/>
<path d="M5717 1889 c-21 -11 -95 -79 -165 -150 -192 -197 -320 -286 -487
-339 -121 -38 -375 -39 -375 -2 0 15 107 40 238 56 93 12 134 21 170 41 54 29
95 83 90 117 -3 21 -7 23 -53 20 -27 -2 -147 -3 -265 -3 -241 1 -337 -11 -485
-60 -119 -40 -202 -87 -280 -160 -113 -106 -191 -255 -219 -422 -8 -45 -8 -45
116 -12 134 36 211 41 374 20 162 -20 384 -16 501 10 186 41 369 121 517 227
179 126 382 352 463 511 59 118 45 196 -28 153 -29 -17 -32 -17 -41 -2 -12 21
-24 20 -71 -5z"/>
</g>
</svg>
